<svg width="80" height="40" viewBox="0 0 80 40" fill="none" xmlns="http://www.w3.org/2000/svg">
<path d="M2.85714 7.34694H77.1429C78.7209 7.34694 80 6.61602 80 5.71429V1.63265C80 0.730918 78.7209 0 77.1429 0H2.85714C1.27911 0 0 0.730918 0 1.63265V5.71429C0 6.61602 1.27911 7.34694 2.85714 7.34694ZM2.85714 23.6735H77.1429C78.7209 23.6735 80 22.9426 80 22.0408V17.9592C80 17.0574 78.7209 16.3265 77.1429 16.3265H2.85714C1.27911 16.3265 0 17.0574 0 17.9592V22.0408C0 22.9426 1.27911 23.6735 2.85714 23.6735ZM2.85714 40H77.1429C78.7209 40 80 39.2691 80 38.3673V34.2857C80 33.384 78.7209 32.6531 77.1429 32.6531H2.85714C1.27911 32.6531 0 33.384 0 34.2857V38.3673C0 39.2691 1.27911 40 2.85714 40Z" fill="white"/>
</svg>
