<svg width="80" height="80" viewBox="0 0 80 80" fill="none" xmlns="http://www.w3.org/2000/svg">
<path d="M77.7778 45H66.6667V60L62.2222 56.6719L57.7778 60V45H46.6667C45.4444 45 44.4444 46.125 44.4444 47.5V77.5C44.4444 78.875 45.4444 80 46.6667 80H77.7778C79 80 80 78.875 80 77.5V47.5C80 46.125 79 45 77.7778 45ZM24.4444 35H55.5556C56.7778 35 57.7778 33.875 57.7778 32.5V2.5C57.7778 1.125 56.7778 0 55.5556 0H44.4444V15L40 11.6719L35.5556 15V0H24.4444C23.2222 0 22.2222 1.125 22.2222 2.5V32.5C22.2222 33.875 23.2222 35 24.4444 35ZM33.3333 45H22.2222V60L17.7778 56.6719L13.3333 60V45H2.22222C1 45 0 46.125 0 47.5V77.5C0 78.875 1 80 2.22222 80H33.3333C34.5556 80 35.5556 78.875 35.5556 77.5V47.5C35.5556 46.125 34.5556 45 33.3333 45Z" fill="black"/>
</svg>
