<svg width="80" height="80" viewBox="0 0 80 80" fill="none" xmlns="http://www.w3.org/2000/svg">
<path d="M30 32.5C30 29.7391 27.7609 27.5 25 27.5H22.5C16.9766 27.5 12.5 31.9766 12.5 37.5V45C12.5 50.5234 16.9766 55 22.5 55H25C27.7609 55 30 52.7609 30 50V32.5ZM57.5 55C63.0234 55 67.5 50.5234 67.5 45V37.5C67.5 31.9766 63.0234 27.5 57.5 27.5H55C52.2391 27.5 50 29.7391 50 32.5V50C50 52.7609 52.2391 55 55 55H57.5ZM40 0C17.6844 0 0.715625 18.5672 0 40V42.5C0 43.8812 1.11875 45 2.5 45H5C6.38125 45 7.5 43.8812 7.5 42.5V40C7.5 22.0797 22.0797 7.5 40 7.5C57.9203 7.5 72.5 22.0797 72.5 40H72.4812C72.4938 40.3797 72.5 65.8938 72.5 65.8938C72.5 69.5422 69.5422 72.5 65.8938 72.5H50C50 68.3578 46.6422 65 42.5 65H37.5C33.3578 65 30 68.3578 30 72.5C30 76.6422 33.3578 80 37.5 80H65.8938C73.6844 80 80 73.6844 80 65.8938V40C79.2844 18.5672 62.3156 0 40 0Z" fill="black"/>
</svg>
