<svg width="80" height="80" viewBox="0 0 80 80" fill="none" xmlns="http://www.w3.org/2000/svg">
<circle cx="40" cy="40" r="35" fill="#EDE5DA"/>
<circle cx="40" cy="40" r="38.5" stroke="#FFF7F1" stroke-width="3"/>
<path d="M24.5794 30.6981C24.7341 30.7562 24.8984 30.8077 25.0725 30.8528C25.2529 30.8979 25.4302 30.9366 25.6042 30.9688C25.7847 30.9946 25.9587 31.0204 26.1263 31.0462C26.3003 31.0655 26.455 31.0784 26.5903 31.0849C26.8353 30.3372 27.1414 29.6411 27.5088 28.9966C27.8762 28.3521 28.2758 27.7655 28.7076 27.237C29.1459 26.7085 29.6035 26.2412 30.0805 25.8352C30.5639 25.4291 31.0408 25.0875 31.5113 24.8104C31.9883 24.5268 32.4459 24.3141 32.8842 24.1723C33.3289 24.0305 33.735 23.9596 34.1023 23.9596C34.5729 23.9596 34.9499 24.082 35.2335 24.327C35.5235 24.5719 35.6686 24.9521 35.6686 25.4678C35.6686 25.7707 35.5815 26.1091 35.4075 26.4829C35.2399 26.8567 34.9982 27.2435 34.6824 27.6431C34.3666 28.0362 33.9831 28.4326 33.5319 28.8322C33.0808 29.2318 32.5716 29.6121 32.0044 29.973C31.4437 30.3275 30.8281 30.653 30.1578 30.9495C29.4939 31.2396 28.7914 31.4748 28.0502 31.6553C27.7602 32.4416 27.4605 33.244 27.1511 34.0626C26.8417 34.8747 26.513 35.6868 26.1649 36.4989C25.8169 37.3046 25.4398 38.0941 25.0338 38.8676C24.6342 39.641 24.1895 40.379 23.6996 41.0815C24.2732 41.5907 24.8404 42.0902 25.4012 42.5801C25.9684 43.0764 26.5452 43.5179 27.1317 43.9046C27.7183 44.2913 28.3241 44.6007 28.9493 44.8327C29.5745 45.0712 30.2352 45.1904 30.9313 45.1904C31.6918 45.1904 32.5039 45.0229 33.3676 44.6877C34.2313 44.3525 35.169 43.7918 36.181 43.0055C36.8642 42.5543 37.4313 42.2224 37.8825 42.0097C38.3337 41.797 38.6624 41.6906 38.8687 41.6906C39.0298 41.6906 39.1104 41.7519 39.1104 41.8743C39.1104 42.0483 38.9234 42.3384 38.5496 42.7444C38.1822 43.1569 37.5989 43.6758 36.7997 44.301C36.2583 44.7393 35.7395 45.1131 35.2432 45.4225C34.7533 45.7318 34.2764 45.9832 33.8123 46.1766C33.3547 46.3699 32.9132 46.5117 32.4878 46.602C32.0624 46.6922 31.6531 46.7373 31.26 46.7373C30.4801 46.7373 29.7421 46.5858 29.046 46.2829C28.3499 45.9864 27.6764 45.5997 27.0254 45.1228C26.3744 44.6458 25.7299 44.1108 25.0918 43.5179C24.4602 42.9249 23.8156 42.3319 23.1582 41.739C22.7328 42.2417 22.2784 42.6993 21.795 43.1118C21.3116 43.5308 20.7928 43.8885 20.2385 44.185C19.6906 44.4879 19.1041 44.7199 18.4789 44.8811C17.8602 45.0486 17.1995 45.1324 16.497 45.1324C15.6849 45.1324 14.9791 45.0164 14.3797 44.7844C13.7803 44.5523 13.284 44.2462 12.8908 43.8659C12.5041 43.4856 12.2141 43.0506 12.0207 42.5607C11.8338 42.0773 11.7403 41.5843 11.7403 41.0815C11.7403 40.5853 11.8306 40.0986 12.011 39.6217C12.1915 39.1447 12.4558 38.7226 12.8038 38.3552C13.1519 37.9813 13.5837 37.6816 14.0993 37.4561C14.6149 37.2305 15.2079 37.1177 15.8782 37.1177C16.5356 37.1177 17.1576 37.195 17.7441 37.3497C18.3307 37.5044 18.8946 37.7139 19.436 37.9781C19.9774 38.2359 20.4963 38.5389 20.9926 38.8869C21.4889 39.235 21.9723 39.6023 22.4428 39.9891C22.8166 39.351 23.1743 38.6871 23.5159 37.9975C23.864 37.3014 24.1991 36.5956 24.5214 35.8802C24.8501 35.1647 25.1691 34.4461 25.4785 33.7242C25.7943 33.0023 26.1069 32.2934 26.4163 31.5973C26.281 31.5973 26.1295 31.594 25.9619 31.5876C25.7943 31.5747 25.6203 31.5618 25.4398 31.5489C25.2594 31.536 25.0789 31.5199 24.8984 31.5006C24.7244 31.4748 24.5601 31.4458 24.4054 31.4136C24.1153 31.362 23.8156 31.3266 23.5063 31.3072C23.2033 31.2814 22.9165 31.2363 22.6458 31.1719C22.3751 31.101 22.1302 30.9946 21.911 30.8528C21.6983 30.7046 21.534 30.4854 21.418 30.1954C21.3664 30.0729 21.3406 29.9537 21.3406 29.8377C21.3406 29.7475 21.36 29.6572 21.3986 29.567C21.4373 29.4768 21.4921 29.3962 21.563 29.3253C21.6403 29.2479 21.7273 29.1867 21.824 29.1416C21.9271 29.0965 22.0399 29.0739 22.1624 29.0739C22.3622 29.0739 22.5749 29.1352 22.8005 29.2576C23.0261 29.3801 23.2484 29.5283 23.4676 29.7023C23.6867 29.8764 23.893 30.0568 24.0863 30.2438C24.2797 30.4242 24.444 30.5757 24.5794 30.6981ZM16.3906 44.3977C17.0094 44.3977 17.583 44.3074 18.1115 44.127C18.64 43.9465 19.1331 43.6951 19.5907 43.3729C20.0483 43.0506 20.4737 42.6639 20.8669 42.2127C21.2601 41.768 21.6307 41.2781 21.9787 40.7432C21.5275 40.3887 21.0603 40.0567 20.5769 39.7474C20.0999 39.438 19.6004 39.1673 19.0783 38.9353C18.5563 38.7032 18.0084 38.5228 17.4348 38.3938C16.8676 38.2585 16.2649 38.1908 15.6269 38.1908C15.2466 38.1908 14.9114 38.2714 14.6214 38.4325C14.3378 38.5937 14.0993 38.8063 13.906 39.0706C13.7126 39.3349 13.5644 39.6378 13.4612 39.9794C13.3646 40.321 13.3162 40.6755 13.3162 41.0429C13.3162 41.4489 13.3774 41.8518 13.4999 42.2514C13.6288 42.6574 13.8189 43.0184 14.0703 43.3342C14.3217 43.65 14.6407 43.9046 15.0274 44.0979C15.4142 44.2978 15.8686 44.3977 16.3906 44.3977ZM28.2532 30.9205C28.8784 30.7078 29.4714 30.4436 30.0321 30.1277C30.5993 29.8055 31.1214 29.4606 31.5983 29.0933C32.0817 28.7259 32.5168 28.3456 32.9035 27.9524C33.2902 27.5593 33.6189 27.179 33.8896 26.8116C34.1668 26.4442 34.3763 26.1059 34.5181 25.7965C34.6663 25.4807 34.7404 25.2196 34.7404 25.0134C34.7404 24.7233 34.5922 24.5783 34.2957 24.5783C34.083 24.5783 33.8091 24.6557 33.4739 24.8104C33.1388 24.965 32.7746 25.1842 32.3814 25.4678C31.9947 25.7514 31.5919 26.0897 31.1729 26.4829C30.7605 26.8696 30.3673 27.2982 29.9935 27.7688C29.6196 28.2393 29.278 28.742 28.9687 29.277C28.6657 29.8055 28.4272 30.3533 28.2532 30.9205ZM32.72 37.0113C32.72 36.2766 32.8296 35.5418 33.0487 34.807C33.2679 34.0723 33.5869 33.3665 34.0059 32.6897C34.4313 32.013 34.9469 31.3846 35.5527 30.8045C36.1586 30.218 36.8482 29.7088 37.6217 29.277C38.4016 28.8451 39.2556 28.5067 40.1837 28.2618C41.1118 28.0169 42.1076 27.8944 43.1711 27.8944C44.1186 27.8944 44.9887 27.9718 45.7814 28.1265C46.5742 28.2747 47.2864 28.4745 47.9181 28.7259C48.5562 28.9708 49.1137 29.2479 49.5906 29.5573C50.0676 29.8603 50.4607 30.1664 50.7701 30.4758C51.0473 29.7088 51.3276 28.9772 51.6112 28.2812C51.9013 27.5851 52.2171 26.9405 52.5587 26.3476C52.9003 25.7546 53.2806 25.2196 53.6995 24.7427C54.1249 24.2657 54.6115 23.8597 55.1594 23.5245C55.7137 23.1829 56.3421 22.9219 57.0446 22.7414C57.7472 22.5609 58.5496 22.4707 59.452 22.4707C60.0836 22.4707 60.6443 22.5706 61.1342 22.7704C61.6305 22.9638 62.0494 23.2313 62.391 23.5729C62.7326 23.9145 62.9904 24.3173 63.1645 24.7813C63.3449 25.2454 63.4352 25.7417 63.4352 26.2702C63.4352 26.8116 63.3385 27.3434 63.1451 27.8654C62.9518 28.3875 62.6521 28.9031 62.246 29.4123C61.8464 29.915 61.3372 30.4113 60.7185 30.9012C60.0997 31.391 59.3617 31.8744 58.5045 32.3514C59.2844 32.4158 59.9611 32.5995 60.5348 32.9024C61.1084 33.1989 61.5821 33.5792 61.956 34.0433C62.3362 34.5009 62.6198 35.0229 62.8067 35.6095C62.9937 36.196 63.0871 36.8051 63.0871 37.4367C63.0871 37.9781 63.0259 38.5066 62.9034 39.0223C63.0968 38.9191 63.2998 38.8096 63.5125 38.6936C63.7316 38.5775 63.9347 38.468 64.1216 38.3648L64.75 38.0265C64.8467 37.9878 64.9272 37.9685 64.9917 37.9685C65.1464 37.9685 65.2237 38.0458 65.2237 38.2005C65.2237 38.3101 65.1851 38.41 65.1077 38.5002C65.0368 38.5904 64.9401 38.6774 64.8177 38.7612C64.7017 38.8386 64.5663 38.9191 64.4116 39.0029C64.2634 39.0803 64.1119 39.1608 63.9572 39.2446C63.7316 39.3735 63.5286 39.496 63.3481 39.612C63.1677 39.728 62.9711 39.844 62.7584 39.9601C62.4748 41.262 62.0301 42.4189 61.4242 43.4309C60.8184 44.4492 60.0965 45.3064 59.2586 46.0025C58.4207 46.7051 57.4861 47.2368 56.4549 47.5978C55.4236 47.9651 54.344 48.1488 53.2161 48.1488C52.7005 48.1488 52.1881 48.1037 51.6789 48.0135C51.1762 47.9232 50.6896 47.7976 50.219 47.6364C49.7485 47.4817 49.3006 47.298 48.8752 47.0854C48.4498 46.8791 48.0566 46.6567 47.6957 46.4183C47.3412 46.1798 47.0254 45.9349 46.7482 45.6835C46.4711 45.4321 46.2455 45.1872 46.0715 44.9487C44.7631 44.9487 43.5256 44.8907 42.359 44.7747C41.1924 44.6651 40.116 44.4847 39.1299 44.2333C38.1438 43.9819 37.2543 43.65 36.4615 43.2375C35.6688 42.8314 34.9952 42.3352 34.4409 41.7486C33.8866 41.1621 33.4612 40.4789 33.1647 39.699C32.8683 38.9127 32.72 38.0168 32.72 37.0113ZM45.8104 33.9369C45.8104 33.8531 45.92 33.75 46.1392 33.6275C46.3583 33.5051 46.658 33.3794 47.0383 33.2505C47.4186 33.1151 47.8697 32.9798 48.3918 32.8444C48.9139 32.7091 49.4811 32.5834 50.0934 32.4674L50.5574 31.0655C50.2545 30.7884 49.9 30.5338 49.4939 30.3018C49.0879 30.0697 48.598 29.8699 48.0244 29.7023C47.4508 29.5348 46.774 29.4026 45.9941 29.306C45.2143 29.2093 44.3022 29.1609 43.2581 29.1609C42.2204 29.1609 41.2601 29.2608 40.3771 29.4606C39.5005 29.6604 38.7013 29.9376 37.9794 30.2921C37.264 30.6401 36.6291 31.0526 36.0748 31.5296C35.527 32.0065 35.0661 32.5254 34.6923 33.0861C34.3185 33.6404 34.0349 34.2237 33.8415 34.836C33.6546 35.4483 33.5611 36.0606 33.5611 36.6729C33.5611 37.253 33.661 37.8234 33.8608 38.3842C34.0606 38.9449 34.3475 39.4799 34.7213 39.9891C35.0951 40.4918 35.5527 40.9591 36.0941 41.3909C36.6355 41.8228 37.2446 42.1934 37.9214 42.5027C38.6046 42.8186 39.3522 43.0635 40.1644 43.2375C40.9765 43.418 41.8434 43.5082 42.765 43.5082H42.823C42.8102 43.418 42.8005 43.331 42.794 43.2472C42.7876 43.1698 42.7844 43.0925 42.7844 43.0151C42.7844 42.7058 42.8295 42.4415 42.9197 42.2224C43.0164 42.0032 43.1421 41.8228 43.2968 41.681C43.4515 41.5392 43.6287 41.436 43.8285 41.3716C44.0283 41.3071 44.2346 41.2749 44.4473 41.2749C44.718 41.2749 44.9854 41.3168 45.2497 41.4006C45.5204 41.4844 45.7589 41.6036 45.9651 41.7583C46.3583 41.3587 46.716 40.9043 47.0383 40.3951C47.3605 39.8795 47.657 39.3252 47.9277 38.7322C48.2049 38.1393 48.4595 37.5173 48.6915 36.8663C48.93 36.2089 49.162 35.5354 49.3876 34.8457C49.0589 34.865 48.7302 34.8779 48.4015 34.8844C48.0792 34.8908 47.744 34.894 47.396 34.894C46.9062 34.894 46.5194 34.8167 46.2358 34.662C45.9522 34.5073 45.8104 34.2656 45.8104 33.9369ZM46.9319 44.0109C47.9825 43.9271 49.0557 43.7918 50.1514 43.6049C51.2471 43.418 52.3621 43.1666 53.4965 42.8508C54.6309 42.535 55.7878 42.1515 56.9673 41.7003C58.1532 41.2427 59.3617 40.7045 60.5928 40.0857C60.6572 39.7893 60.7185 39.4412 60.7765 39.0416C60.8409 38.642 60.8731 38.1586 60.8731 37.5914C60.8731 37.2627 60.8538 36.9243 60.8151 36.5763C60.7765 36.2218 60.7056 35.877 60.6024 35.5418C60.5058 35.2066 60.3736 34.8908 60.2061 34.5943C60.0385 34.2914 59.8226 34.0239 59.5583 33.7919C59.294 33.5534 58.9782 33.3601 58.6108 33.2118C58.2499 33.0636 57.8245 32.9766 57.3347 32.9508C56.9286 33.1248 56.5322 33.2892 56.1455 33.4438C55.7588 33.5985 55.356 33.7436 54.937 33.8789C54.5181 34.0143 54.0733 34.1399 53.6028 34.256C53.1323 34.3655 52.607 34.4622 52.027 34.546C51.8271 35.4548 51.5887 36.3507 51.3115 37.2337C51.0344 38.1103 50.6896 38.9417 50.2771 39.728C49.8646 40.5079 49.3715 41.2233 48.7979 41.8743C48.2242 42.5188 47.5475 43.0635 46.7676 43.5082C46.7869 43.592 46.8095 43.6726 46.8353 43.7499C46.8675 43.8337 46.8997 43.9207 46.9319 44.0109ZM54.8693 31.9066C55.5461 31.9066 56.1938 31.9453 56.8126 32.0227C58.5399 31.0688 59.829 30.0826 60.6798 29.0643C61.537 28.0395 61.9656 26.9985 61.9656 25.9415C61.9656 25.5548 61.9012 25.1971 61.7723 24.8684C61.6498 24.5396 61.4629 24.2561 61.2115 24.0176C60.9602 23.7791 60.6411 23.5922 60.2544 23.4568C59.8741 23.3215 59.4294 23.2538 58.9202 23.2538C58.0888 23.2538 57.3798 23.3569 56.7933 23.5632C56.2067 23.7694 55.7072 24.0627 55.2947 24.443C54.8822 24.8168 54.5406 25.2712 54.2699 25.8062C54.0057 26.3347 53.7769 26.9244 53.5835 27.5754C53.3901 28.2264 53.2161 28.9289 53.0614 29.683C52.9067 30.4371 52.7424 31.2267 52.5684 32.0517C52.8068 32.0323 53.0163 32.0162 53.1968 32.0033C53.3772 31.984 53.5513 31.9679 53.7188 31.955C53.8864 31.9356 54.0604 31.9228 54.2409 31.9163C54.4214 31.9099 54.6309 31.9066 54.8693 31.9066ZM60.4671 41.0719C59.8935 41.349 59.3134 41.6358 58.7269 41.9323C58.1468 42.2288 57.5409 42.5188 56.9093 42.8024C56.2776 43.086 55.6138 43.3535 54.9177 43.6049C54.228 43.8627 53.4868 44.0883 52.694 44.2816C51.9077 44.4814 51.0602 44.6394 50.1514 44.7554C49.249 44.8778 48.2726 44.9455 47.222 44.9584C47.512 45.2355 47.8665 45.5191 48.2854 45.8092C48.7108 46.0992 49.1685 46.3635 49.6583 46.602C50.1546 46.8404 50.6734 47.0338 51.2148 47.182C51.7563 47.3367 52.2912 47.4141 52.8197 47.4141C53.8896 47.4141 54.85 47.2465 55.7008 46.9113C56.5516 46.5826 57.2928 46.1282 57.9244 45.5481C58.5625 44.9745 59.091 44.301 59.51 43.5275C59.9354 42.7605 60.2544 41.942 60.4671 41.0719ZM52.375 32.9798C52.3492 33.1022 52.3267 33.2247 52.3073 33.3472C52.288 33.4632 52.259 33.5792 52.2203 33.6952C52.5748 33.6372 52.8874 33.5728 53.1581 33.5019C53.4353 33.431 53.6963 33.3536 53.9412 33.2698C54.1926 33.1796 54.4375 33.0861 54.676 32.9895C54.9209 32.8863 55.1948 32.7768 55.4978 32.6607C55.4397 32.6543 55.3882 32.6511 55.3431 32.6511C55.2979 32.6511 55.2464 32.6511 55.1884 32.6511C54.9177 32.6704 54.6728 32.6897 54.4536 32.7091C54.2345 32.7284 54.0186 32.751 53.8059 32.7768C53.5996 32.8025 53.3805 32.8315 53.1484 32.8638C52.9229 32.896 52.665 32.9347 52.375 32.9798ZM47.4443 33.9176C47.7344 33.9434 48.0212 33.9627 48.3048 33.9756C48.5884 33.982 48.8688 33.9853 49.1459 33.9853H49.581C49.6067 33.9144 49.6293 33.8467 49.6486 33.7822C49.668 33.7178 49.6905 33.6533 49.7163 33.5889C49.2522 33.6791 48.8301 33.7564 48.4498 33.8209C48.076 33.8854 47.7408 33.9176 47.4443 33.9176ZM22.0472 60.8822C22.0104 61.0754 22.061 61.2272 22.199 61.3376C22.3462 61.4388 22.5716 61.4894 22.8752 61.4894V62H20.5706V61.4894C20.8374 61.4894 21.0352 61.4434 21.164 61.3514C21.2928 61.2594 21.3802 61.103 21.4262 60.8822L23.4962 51.4568H24.1586L26.2976 60.9098C26.3436 61.1398 26.4218 61.2962 26.5322 61.379C26.6518 61.4526 26.8496 61.4894 27.1256 61.4894V62H23.924V61.4894C24.2552 61.4894 24.4852 61.448 24.614 61.3652C24.752 61.2732 24.798 61.126 24.752 60.9236L24.4622 59.5298H22.337L22.0472 60.8822ZM22.4612 58.9778H24.338L23.4272 54.5756L22.4612 58.9778ZM30.4918 61.4894C30.7862 61.4894 30.9978 61.4434 31.1266 61.3514C31.2554 61.2594 31.3198 61.1076 31.3198 60.896V55.652C31.3198 55.4404 31.2554 55.2886 31.1266 55.1966C30.9978 55.1046 30.7862 55.0586 30.4918 55.0586V54.548H33.5416C34.3052 54.548 34.9032 54.7136 35.3356 55.0448C35.7772 55.3668 35.998 55.8176 35.998 56.3972C35.998 56.8296 35.9336 57.17 35.8048 57.4184C35.676 57.6576 35.4322 57.883 35.0734 58.0946C35.5334 58.2602 35.8692 58.4948 36.0808 58.7984C36.2924 59.102 36.3982 59.493 36.3982 59.9714C36.3982 60.6614 36.1912 61.172 35.7772 61.5032C35.3724 61.8344 34.7422 62 33.8866 62H30.4918V61.4894ZM33.5554 55.0862H32.8102V61.4618H33.8866C34.1902 61.4618 34.434 61.3652 34.618 61.172C34.802 60.9788 34.894 60.7212 34.894 60.3992V59.5574C34.894 59.217 34.802 58.9502 34.618 58.757C34.4432 58.5546 34.1994 58.4534 33.8866 58.4534H33.3622V57.9428H33.5554C33.905 57.9428 34.158 57.8462 34.3144 57.653C34.48 57.4506 34.5628 57.1378 34.5628 56.7146V56.1488C34.5628 55.8176 34.4708 55.56 34.2868 55.376C34.112 55.1828 33.8682 55.0862 33.5554 55.0862ZM40.001 61.4894C40.2954 61.4894 40.507 61.4434 40.6358 61.3514C40.7646 61.2594 40.829 61.1076 40.829 60.896V55.652C40.829 55.4404 40.7646 55.2886 40.6358 55.1966C40.507 55.1046 40.2954 55.0586 40.001 55.0586V54.548H43.175V55.0586C42.8806 55.0586 42.669 55.1046 42.5402 55.1966C42.4114 55.2886 42.347 55.4404 42.347 55.652V60.896C42.347 61.1076 42.4114 61.2594 42.5402 61.3514C42.669 61.4434 42.8806 61.4894 43.175 61.4894V62H40.001V61.4894ZM47.9458 61.4894C48.2402 61.4894 48.4518 61.4434 48.5806 61.3514C48.7094 61.2594 48.7738 61.1076 48.7738 60.896V55.0862H48.5392C48.2448 55.0862 48.0102 55.1322 47.8354 55.2242C47.6606 55.3162 47.5088 55.4956 47.38 55.7624C47.2604 56.0292 47.127 56.4294 46.9798 56.963L46.5106 56.8388L46.9798 54.1892H47.4076C47.4352 54.4284 47.6468 54.548 48.0424 54.548H51.0508C51.4464 54.548 51.658 54.4284 51.6856 54.1892H52.1134L52.5826 56.8388L52.1134 56.963C51.9662 56.4294 51.8282 56.0292 51.6994 55.7624C51.5798 55.4956 51.4326 55.3162 51.2578 55.2242C51.083 55.1322 50.8484 55.0862 50.554 55.0862H50.2918V60.896C50.2918 61.1076 50.3562 61.2594 50.485 61.3514C50.6138 61.4434 50.8254 61.4894 51.1198 61.4894V62H47.9458V61.4894ZM55.9198 61.4894C56.2142 61.4894 56.4258 61.4434 56.5546 61.3514C56.6834 61.2594 56.7478 61.1076 56.7478 60.896V55.652C56.7478 55.4404 56.6834 55.2886 56.5546 55.1966C56.4258 55.1046 56.2142 55.0586 55.9198 55.0586V54.548H59.0938V55.0586C58.7994 55.0586 58.5878 55.1046 58.459 55.1966C58.3302 55.2886 58.2658 55.4404 58.2658 55.652V60.896C58.2658 61.1076 58.3302 61.2594 58.459 61.3514C58.5878 61.4434 58.7994 61.4894 59.0938 61.4894V62H55.9198V61.4894Z" fill="#9E6A4A"/>
<path d="M10.5 58.5H59H69.5" stroke="#562B2B" stroke-opacity="0.8" stroke-width="0.1"/>
</svg>
