<svg width="80" height="70" viewBox="0 0 80 70" fill="none" xmlns="http://www.w3.org/2000/svg">
<path d="M77.645 3.50938C72.7962 0.967188 67.9437 1.87931e-07 63.0938 1.87931e-07C47.6975 -0.00156231 32.3025 9.74062 16.9062 9.74062C13.045 9.74062 9.18625 9.12813 5.325 7.59688C4.89125 7.425 4.45625 7.34375 4.03125 7.34375C1.88 7.34375 0 9.425 0 12.3141V61.8859C0 63.8594 0.90375 65.7297 2.355 66.4891C7.20375 69.0328 12.0562 70 16.9062 70C32.3025 70 47.6988 60.2578 63.095 60.2578C66.9563 60.2578 70.815 60.8703 74.6762 62.4016C75.11 62.5734 75.545 62.6547 75.97 62.6547C78.1213 62.6547 80.0013 60.5734 80.0013 57.6844V8.11406C80 6.13906 79.0962 4.27031 77.645 3.50938ZM6 15.6594C8.515 16.4469 11.14 16.8422 13.84 17.0547C13.105 21.6469 9.875 25.1078 6 25.1078V15.6594ZM6 60.1906V52.725C10.2962 52.725 13.7725 56.9859 13.9637 62.3187C11.1475 62.0359 8.515 61.3328 6 60.1906ZM40 50C34.4762 50 30 43.2828 30 35C30 26.7156 34.4775 20 40 20C45.5225 20 50 26.7156 50 35C50 43.2859 45.5212 50 40 50ZM74 54.3406C71.81 53.6547 69.5362 53.2703 67.21 53.0219C67.9437 48.9469 70.6475 45.8531 74 45.3219V54.3406ZM74 17.4484C70.1387 16.8375 67.1425 12.8078 67.0238 7.83125C69.4662 8.17031 71.785 8.80469 74 9.80937V17.4484Z" fill="black"/>
</svg>
