<svg width="22" height="22" viewBox="0 0 22 22" fill="none" xmlns="http://www.w3.org/2000/svg">
<path d="M11 0.5C4.92422 0.5 0 4.86406 0 10.25C0 12.575 0.919531 14.7031 2.44922 16.3766C1.91211 18.7391 0.116016 20.8438 0.0945313 20.8672C0 20.975 -0.0257812 21.1344 0.0300781 21.275C0.0859375 21.4156 0.20625 21.5 0.34375 21.5C3.19258 21.5 5.32813 20.0094 6.38516 19.0906C7.79023 19.6672 9.35 20 11 20C17.0758 20 22 15.6359 22 10.25C22 4.86406 17.0758 0.5 11 0.5ZM5.5 11.75C4.73945 11.75 4.125 11.0797 4.125 10.25C4.125 9.42031 4.73945 8.75 5.5 8.75C6.26055 8.75 6.875 9.42031 6.875 10.25C6.875 11.0797 6.26055 11.75 5.5 11.75ZM11 11.75C10.2395 11.75 9.625 11.0797 9.625 10.25C9.625 9.42031 10.2395 8.75 11 8.75C11.7605 8.75 12.375 9.42031 12.375 10.25C12.375 11.0797 11.7605 11.75 11 11.75ZM16.5 11.75C15.7395 11.75 15.125 11.0797 15.125 10.25C15.125 9.42031 15.7395 8.75 16.5 8.75C17.2605 8.75 17.875 9.42031 17.875 10.25C17.875 11.0797 17.2605 11.75 16.5 11.75Z" fill="black"/>
</svg>
